# xmcd
#
# Track frame offsets: 
#        150
#        12040
#        30142
#        46290
#        59805
#        77327
#        95450
#        110975
#        129485
#        144622
#        157160
#        172477
#        198175
#        215240
#
# Disc length: 3333 seconds
#
# Revision: 2
# Processed by: cddbd v1.5.2PL0 Copyright (c) Steve Scherf et al.
# Submitted via: ExactAudioCopy v0.99pb4
#
DISCID=ca0d030e
DTITLE=Lynyrd Skynyrd - Endangered Species [Bonus Tracks]
DYEAR=1994
DGENRE=Southern Rock
TTITLE0=Down South Jukin'
TTITLE1=Heartbreak Hotel
TTITLE2=Devil In The Bottle
TTITLE3=Things Goin' On
TTITLE4=Saturday Night Special
TTITLE5=Sweet Home Alabama
TTITLE6=I Ain't The One
TTITLE7=Am I Losin'
TTITLE8=All I Have Is A Song
TTITLE9=Poison Whiskey
TTITLE10=Good Luck, Bad Luck
TTITLE11=The Last Rebel
TTITLE12=Hillbilly Blues
TTITLE13=Simple Man [Live]
EXTD=YEAR: 1994
EXTT0=
EXTT1=
EXTT2=
EXTT3=
EXTT4=
EXTT5=
EXTT6=
EXTT7=
EXTT8=
EXTT9=
EXTT10=
EXTT11=
EXTT12=
EXTT13=
PLAYORDER=
